General Information
Complete name                            : Filth To Ashes Flesh To Dust (2011) DVDRip XviD BBnRG.avi
Format                                   : AVI
Format/Info                              : Audio Video Interleave
File size                                : 1.23 GiB
Duration                                 : 1h 25mn
Overall bit rate                         : 2 055 Kbps

Video
ID                                       : 0
Format                                   : MPEG-4 Visual
Format profile                           : Advanced Simple@L5
Format settings, BVOP                    : 2
Format settings, QPel                    : Yes
Format settings, GMC                     : No warppoints
Format settings, Matrix                  : Default (H.263)
Codec ID                                 : XVID
Codec ID/Hint                            : XviD
Duration                                 : 1h 25mn
Bit rate                                 : 1 600 Kbps
Width                                    : 720 pixels
Height                                   : 320 pixels
Display aspect ratio                     : 2.25:1
Frame rate                               : 23.976 fps
Color space                              : YUV
Chroma subsampling                       : 4:2:0
Bit depth                                : 8 bits
Scan type                                : Progressive
Compression mode                         : Lossy
Bits/(Pixel*Frame)                       : 0.290
Stream size                              : 982 MiB (78%)
Writing library                          : XviD 1.2.1 (UTC 2008-12-04)

Audio
ID                                       : 1
Format                                   : AC-3
Format/Info                              : Audio Coding 3
Mode extension                           : CM (complete main)
Codec ID                                 : 2000
Duration                                 : 1h 25mn
Bit rate mode                            : Constant
Bit rate                                 : 448 Kbps
Channel(s)                               : 6 channels
Channel positions                        : Front: L C R, Side: L R, LFE
Sampling rate                            : 48.0 KHz
Bit depth                                : 16 bits
Compression mode                         : Lossy
Stream size                              : 275 MiB (22%)
Alignment                                : Aligned on interleaves
Interleave, duration                     : 64 ms (1.53 video frames)
Interleave, preload duration             : 192 ms
Title                                    : Filth To Ashes (2011) BBnRG

Notes
Encoder:    FridayToker
Source(s):  DVDR UnKnOwN (thanks)  

Another fine release from BBnRG

Summary
90 min  -  Horror   -  30 September 2011 (USA)

Purge: To put to death, eliminate what is undesirable. The serial killer known as Purge lived and died by this code. But is he dead? Driving home from a road trip, ERIC and SHELLY take a back road to avoid a traffic jam. They encounter the serial killer Purge. Eric survives but Shelly is murdered. A year later, a group of adventure-seeking high school grads venture to purge's lair. Among them is Eric's brother JUAN. Eric sets out to save his brother, and get revenge on Purge. For the six teens, their imperfections will be the deciding factor if Purge shows them mercy. But if everyone is imperfect, will any of them survive?

IMDb Link: 
http://www.imdb.com/title/tt1499302/

Screens